<svg xmlns="http://www.w3.org/2000/svg" id="Слой_1" x="0" y="0" version="1.1" viewBox="0 0 919.9 260.1" xml:space="preserve"><defs/><style>*{fill:#fff}</style><path d="M50.5 128.4c0-80.2 118.9-80.2 118.9 0 0 80.3-118.9 80.3-118.9 0zm88.6 0c0-41.7-58.1-41.7-58.1 0 0 42 58.1 42 58.1 0zM244.3 68.9c24 0 50 13.1 54.5 44.1h-29.2c-4.1-11.8-12.9-17.1-25.3-17.1-17.4 0-28.8 13.1-28.8 32.3 0 17.1 12.4 30.4 29.7 33 13 1.9 35 8.4 38.2-4 9.9 0 5.8-15.5 15.9-15.5-4.3 32.8-30.3 45.7-55 45.7-29.5.2-59.3-19.7-59.5-59.1.2-39.5 30-59.4 59.5-59.4zM407.9 128.4c0-80.2 118.9-80.2 118.9 0 .1 80.3-118.9 80.3-118.9 0zm88.7 0c0-41.7-58.1-41.7-58.1 0-.1 42 58.1 42 58.1 0zM549.2 186.2V70.3h51c55.5.2 55.5 86.3 0 86.3h-21.4v29.6h-29.6zm50.9-89.5c-7-.2-14.4 0-21.2 0v33.1h21.2c16.2.1 17.2-32.9 0-33.1zM726.6 147.1V70.2h28.3v77.4c0 25.5-22 40.2-45.9 40.2-23.7 0-46-14.7-46-40.2V70.2h28.3v76.9c0 9.4 9.1 14.1 17.7 14.1 8.7 0 17.6-4.7 17.6-14.1zM840.6 152.1c0-8.1-9.6-9.9-21.2-10.6-25.2-1.8-41.7-10.4-42.1-35.6-1-50 89.1-50 88.4 0h-28.2c0-15.4-31.1-14.1-32.1-.3-.7 8.8 8 10.6 18.4 11.8 23 2.5 45.5 6 45.5 34.9 0 48.7-94.4 49.5-93.7-1.5h28.7c0 14.7 36.3 14.8 36.3 1.3z"/><path d="M326.8 146c-1.1-.6-1.3-1.3-.7-3 2.3-6.3 13.5-19.5 18.6-23.7-6.3 1.9-17.2 15.4-21.2 22.1-2.1 3.5-13.2 22.9-25.2 34-11.1 10.3-29.8 16-49.2 16.7 0 0 6 .3 10 1.3 3.4.9 3.2 2.4 3.2 2.4s-4.8 8.4 10.3 3.8c14.3-4.3 9.4-5.2 9.2-6.7-.3-1.8-.5-2.4 6.1-6.1 5.8-3.2 7.7-5.2 9.4-4.6 2 .7.4 2.2 1.6 2.6.5.2 2.1 0 4.3-.7.7-.2 3.5-1 6.1-4.3 1-1.2 1.6-2.4 1.6-3.2s1-2.7-3.6-3.8c-2.5-.6 3.4-7.4 6.4-11.6 4.4-6.2 7.8-7.4 9.7-7.5 0 0 0 .1.1.1.4.3.9.4 1.4.3.2.1.2.1.1 0 1.2-.2 2.6-1.1 3.6-2.5 1.5-2.1 1.7-4.6.4-5.6-.5-.4-1.3-.4-2.2 0zm-47.1 48.9c-1.1 3-15.5 7.1-14 3.3s12.6-5.1 12.6-5.1 2 .1 1.4 1.8zm29.9-18.7c-.1.8-.9 2.8-3.2 4.6-1.9 1.6-5.4 2.7-5.7 2.6-1.4-.2-3.2-1.1 1.8-5.5 4.6-4 6.4-2.7 7.1-1.7zm18.8-24.9c-1.3 1.8-3.2 2.7-4.3 1.9-1.1-.8-1-2.9.3-4.7 1.3-1.8 3.2-2.7 4.3-1.9 1.1.8.9 2.9-.3 4.7z"/><path d="M243.5 160.8l-10 25.7s42.7 10 69.2-20.3c19.4-22.3 25.6-49.2 55.5-53.1 43.4-5.7 37.6-32.7 28.1-43.2s-18.5-18.7-7.8 2c11.8 22.5-5 28.1-10.5 27.8-14.9-.9-20.8-1.6-36 6.3-19.2 9.9-38.8 41.3-56.4 51.3-14.7 8.4-32.1 3.5-32.1 3.5z"/><path d="M310.5 70.2v26.5H339v4.8c9.9-4 16.1-3.7 27.2-3l1.9.1h.2v-2h28.3V70.2h-86.1zM339 123.5v.7c.9-1 1.8-1.9 2.6-2.7-.8.5-1.7 1.2-2.6 2z"/><path d="M358.3 114.2c-7.9 1-14.1 3.7-19.3 7.5v.4c2-1.7 3.9-2.9 5.6-3.4l2.4-.7-2 1.6c-1.6 1.3-3.8 3.5-6 6v60.6h29.3v-73.8c-2.9.7-6.3 1.4-10 1.8z"/></svg>